<?xml version="1.0" encoding="iso-8859-1"?>
<!-- Generator: Adobe Illustrator 19.0.0, SVG Export Plug-In . SVG Version: 6.00 Build 0)  -->
<svg version="1.1" id="Layer_1" xmlns="http://www.w3.org/2000/svg" xmlns:xlink="http://www.w3.org/1999/xlink" x="0px" y="0px"
	 viewBox="0 0 459.165 459.165" style="enable-background:new 0 0 459.165 459.165;" xml:space="preserve">
<g id="XMLID_483_">
	<g>
		<path fill="#fff" d="M457.571,231.254c-3.231-7.801-10.775-12.842-19.219-12.842h-27.257c-2.803-50.785-24.063-98.172-60.491-134.358
			c-38.834-38.576-90.292-59.821-144.891-59.821C92.282,24.233,0,116.515,0,229.945C0,281.57,19.279,330.971,54.284,369.05
			c34.789,37.842,81.974,61.202,132.863,65.777c0.78,0.07,1.571,0.105,2.353,0.105c6.576,0,12.874-2.444,17.733-6.881
			c5.45-4.976,8.576-12.049,8.576-19.407v-64.737c0-13.003-9.719-24.185-22.607-26.008c-43.51-6.156-76.321-43.968-76.321-87.954
			c0-48.982,39.85-88.831,88.833-88.831c44.815,0,82.36,33.838,88.071,77.298h-24.234c-8.443,0-15.987,5.041-19.219,12.842
			c-3.231,7.801-1.461,16.7,4.509,22.671l84.401,84.4c3.929,3.929,9.153,6.093,14.71,6.093c5.556,0,10.78-2.164,14.709-6.093
			l84.401-84.401C459.032,247.954,460.802,239.055,457.571,231.254z M438.784,239.646l-84.401,84.4
			c-0.049,0.049-0.18,0.179-0.432,0.179c-0.254,0-0.384-0.129-0.433-0.179l-84.401-84.399c-0.175-0.175-0.228-0.438-0.132-0.668
			c0.095-0.23,0.317-0.378,0.565-0.378h35.07c2.702,0,5.292-1.083,7.189-3.008c1.897-1.924,2.943-4.529,2.905-7.231
			c-0.412-28.748-11.943-55.736-32.471-75.993c-20.55-20.278-47.729-31.446-76.531-31.446c-60.115,0-109.023,48.907-109.023,109.022
			c0,26.396,9.593,51.883,27.011,71.765c17.248,19.688,40.925,32.537,66.671,36.18c3.04,0.43,5.246,2.961,5.246,6.017v64.737
			c0,1.698-0.728,3.337-1.999,4.497c-1.264,1.155-2.944,1.73-4.663,1.576C94.321,406.21,20.191,325.048,20.191,229.945
			c0-102.297,83.225-185.521,185.522-185.521c101.55,0,184.767,82.612,185.503,184.154c0.04,5.547,4.548,10.022,10.095,10.022h37.04
			c0.249,0,0.47,0.149,0.565,0.378C439.012,239.209,438.96,239.471,438.784,239.646z"/>
	</g>
</g>
<g>
</g>
<g>
</g>
<g>
</g>
<g>
</g>
<g>
</g>
<g>
</g>
<g>
</g>
<g>
</g>
<g>
</g>
<g>
</g>
<g>
</g>
<g>
</g>
<g>
</g>
<g>
</g>
<g>
</g>
</svg>
